<svg xmlns="http://www.w3.org/2000/svg" xmlns:xlink="http://www.w3.org/1999/xlink" width="500" zoomAndPan="magnify" viewBox="0 0 375 374.999991" height="500" preserveAspectRatio="xMidYMid meet" version="1.0"><defs><g/></defs><g fill="#a6a6a6" fill-opacity="1"><g transform="translate(44.34807, 239.391343)"><g><path d="M 22.890625 -8.28125 C 24.804688 -8.28125 26.6875 -8.722656 28.53125 -9.609375 C 30.375 -10.492188 32.234375 -11.972656 34.109375 -14.046875 L 40 -8.46875 C 37.632812 -5.425781 34.941406 -3.125 31.921875 -1.5625 C 28.898438 0 25.785156 0.78125 22.578125 0.78125 C 19.703125 0.78125 17 0.191406 14.46875 -0.984375 C 11.945312 -2.171875 9.753906 -3.765625 7.890625 -5.765625 C 6.035156 -7.765625 4.578125 -10.09375 3.515625 -12.75 C 2.453125 -15.414062 1.921875 -18.253906 1.921875 -21.265625 C 1.921875 -24.265625 2.46875 -27.082031 3.5625 -29.71875 C 4.664062 -32.363281 6.160156 -34.6875 8.046875 -36.6875 C 9.929688 -38.695312 12.15625 -40.28125 14.71875 -41.4375 C 17.28125 -42.601562 20.003906 -43.1875 22.890625 -43.1875 C 25.566406 -43.1875 28.113281 -42.6875 30.53125 -41.6875 C 32.957031 -40.6875 35.332031 -39.023438 37.65625 -36.703125 L 32.375 -30.265625 C 30.6875 -31.828125 29.09375 -32.878906 27.59375 -33.421875 C 26.09375 -33.960938 24.523438 -34.234375 22.890625 -34.234375 C 21.242188 -34.234375 19.6875 -33.890625 18.21875 -33.203125 C 16.757812 -32.523438 15.488281 -31.601562 14.40625 -30.4375 C 13.332031 -29.28125 12.484375 -27.910156 11.859375 -26.328125 C 11.242188 -24.753906 10.9375 -23.066406 10.9375 -21.265625 C 10.9375 -19.460938 11.242188 -17.78125 11.859375 -16.21875 C 12.484375 -14.65625 13.332031 -13.28125 14.40625 -12.09375 C 15.488281 -10.914062 16.757812 -9.984375 18.21875 -9.296875 C 19.6875 -8.617188 21.242188 -8.28125 22.890625 -8.28125 Z M 22.890625 -8.28125 "/></g></g></g><g fill="#a6a6a6" fill-opacity="1"><g transform="translate(86.090765, 239.391343)"><g><path d="M 22.9375 -43.1875 C 25.820312 -43.1875 28.546875 -42.601562 31.109375 -41.4375 C 33.671875 -40.28125 35.898438 -38.695312 37.796875 -36.6875 C 39.703125 -34.6875 41.207031 -32.363281 42.3125 -29.71875 C 43.414062 -27.082031 43.96875 -24.265625 43.96875 -21.265625 C 43.96875 -18.296875 43.414062 -15.46875 42.3125 -12.78125 C 41.207031 -10.101562 39.703125 -7.765625 37.796875 -5.765625 C 35.898438 -3.765625 33.671875 -2.171875 31.109375 -0.984375 C 28.546875 0.191406 25.820312 0.78125 22.9375 0.78125 C 20.0625 0.78125 17.34375 0.191406 14.78125 -0.984375 C 12.21875 -2.171875 9.992188 -3.765625 8.109375 -5.765625 C 6.222656 -7.765625 4.726562 -10.101562 3.625 -12.78125 C 2.53125 -15.46875 1.984375 -18.296875 1.984375 -21.265625 C 1.984375 -24.265625 2.53125 -27.082031 3.625 -29.71875 C 4.726562 -32.363281 6.222656 -34.6875 8.109375 -36.6875 C 9.992188 -38.695312 12.21875 -40.28125 14.78125 -41.4375 C 17.34375 -42.601562 20.0625 -43.1875 22.9375 -43.1875 Z M 22.9375 -8.28125 C 24.582031 -8.28125 26.125 -8.617188 27.5625 -9.296875 C 29.007812 -9.984375 30.269531 -10.914062 31.34375 -12.09375 C 32.425781 -13.28125 33.28125 -14.65625 33.90625 -16.21875 C 34.53125 -17.78125 34.84375 -19.460938 34.84375 -21.265625 C 34.84375 -23.066406 34.53125 -24.753906 33.90625 -26.328125 C 33.28125 -27.910156 32.425781 -29.289062 31.34375 -30.46875 C 30.269531 -31.65625 29.007812 -32.585938 27.5625 -33.265625 C 26.125 -33.953125 24.582031 -34.296875 22.9375 -34.296875 C 21.300781 -34.296875 19.757812 -33.953125 18.3125 -33.265625 C 16.875 -32.585938 15.613281 -31.65625 14.53125 -30.46875 C 13.445312 -29.289062 12.59375 -27.910156 11.96875 -26.328125 C 11.351562 -24.753906 11.046875 -23.066406 11.046875 -21.265625 C 11.046875 -19.460938 11.351562 -17.78125 11.96875 -16.21875 C 12.59375 -14.65625 13.445312 -13.28125 14.53125 -12.09375 C 15.613281 -10.914062 16.875 -9.984375 18.3125 -9.296875 C 19.757812 -8.617188 21.300781 -8.28125 22.9375 -8.28125 Z M 22.9375 -8.28125 "/></g></g></g><g fill="#a6a6a6" fill-opacity="1"><g transform="translate(132.037758, 239.391343)"><g><path d="M 29.015625 -42.578125 L 46.78125 0 L 36.9375 0 L 33.09375 -9.125 L 15.015625 -9.125 L 11.234375 0 L 1.328125 0 L 19.09375 -42.578125 Z M 29.671875 -17.421875 L 24.078125 -30.8125 L 18.5 -17.421875 Z M 29.671875 -17.421875 "/></g></g></g><g fill="#a6a6a6" fill-opacity="1"><g transform="translate(180.14697, 239.391343)"><g><path d="M 22.890625 -8.28125 C 24.804688 -8.28125 26.6875 -8.722656 28.53125 -9.609375 C 30.375 -10.492188 32.234375 -11.972656 34.109375 -14.046875 L 40 -8.46875 C 37.632812 -5.425781 34.941406 -3.125 31.921875 -1.5625 C 28.898438 0 25.785156 0.78125 22.578125 0.78125 C 19.703125 0.78125 17 0.191406 14.46875 -0.984375 C 11.945312 -2.171875 9.753906 -3.765625 7.890625 -5.765625 C 6.035156 -7.765625 4.578125 -10.09375 3.515625 -12.75 C 2.453125 -15.414062 1.921875 -18.253906 1.921875 -21.265625 C 1.921875 -24.265625 2.46875 -27.082031 3.5625 -29.71875 C 4.664062 -32.363281 6.160156 -34.6875 8.046875 -36.6875 C 9.929688 -38.695312 12.15625 -40.28125 14.71875 -41.4375 C 17.28125 -42.601562 20.003906 -43.1875 22.890625 -43.1875 C 25.566406 -43.1875 28.113281 -42.6875 30.53125 -41.6875 C 32.957031 -40.6875 35.332031 -39.023438 37.65625 -36.703125 L 32.375 -30.265625 C 30.6875 -31.828125 29.09375 -32.878906 27.59375 -33.421875 C 26.09375 -33.960938 24.523438 -34.234375 22.890625 -34.234375 C 21.242188 -34.234375 19.6875 -33.890625 18.21875 -33.203125 C 16.757812 -32.523438 15.488281 -31.601562 14.40625 -30.4375 C 13.332031 -29.28125 12.484375 -27.910156 11.859375 -26.328125 C 11.242188 -24.753906 10.9375 -23.066406 10.9375 -21.265625 C 10.9375 -19.460938 11.242188 -17.78125 11.859375 -16.21875 C 12.484375 -14.65625 13.332031 -13.28125 14.40625 -12.09375 C 15.488281 -10.914062 16.757812 -9.984375 18.21875 -9.296875 C 19.6875 -8.617188 21.242188 -8.28125 22.890625 -8.28125 Z M 22.890625 -8.28125 "/></g></g></g><g fill="#a6a6a6" fill-opacity="1"><g transform="translate(221.889665, 239.391343)"><g><path d="M 31.40625 -42.578125 L 40.546875 -42.578125 L 40.546875 0 L 31.40625 0 L 31.40625 -18.3125 L 11.890625 -18.3125 L 11.890625 0 L 2.828125 0 L 2.828125 -42.578125 L 11.890625 -42.578125 L 11.890625 -26.609375 L 31.40625 -26.609375 Z M 31.40625 -42.578125 "/></g></g></g><g fill="#a6a6a6" fill-opacity="1"><g transform="translate(265.254034, 239.391343)"><g><path d="M 2.890625 -42.578125 L 29.484375 -42.578125 L 29.484375 -34.296875 L 12.015625 -34.296875 L 12.015625 -26.609375 L 27.390625 -26.609375 L 27.390625 -18.3125 L 12.015625 -18.3125 L 12.015625 -8.234375 L 29.484375 -8.234375 L 29.484375 0 L 2.890625 0 Z M 2.890625 -42.578125 "/></g></g></g><g fill="#a6a6a6" fill-opacity="1"><g transform="translate(297.627152, 239.391343)"><g><path d="M 29.90625 -21.921875 C 31.59375 -20.921875 32.875 -19.640625 33.75 -18.078125 C 34.632812 -16.515625 35.078125 -14.710938 35.078125 -12.671875 C 35.078125 -10.753906 34.613281 -8.960938 33.6875 -7.296875 C 32.769531 -5.640625 31.472656 -4.171875 29.796875 -2.890625 C 28.273438 -1.722656 26.539062 -0.828125 24.59375 -0.203125 C 22.65625 0.410156 20.601562 0.738281 18.4375 0.78125 C 16.28125 0.78125 14.21875 0.484375 12.25 -0.109375 C 10.289062 -0.710938 8.550781 -1.617188 7.03125 -2.828125 C 4.75 -4.546875 3.1875 -6.625 2.34375 -9.0625 L 10.75 -12.96875 C 10.75 -12.570312 10.890625 -12.070312 11.171875 -11.46875 C 11.453125 -10.875 11.890625 -10.296875 12.484375 -9.734375 C 13.085938 -9.171875 13.867188 -8.6875 14.828125 -8.28125 C 15.796875 -7.882812 16.976562 -7.6875 18.375 -7.6875 C 19.5 -7.6875 20.488281 -7.828125 21.34375 -8.109375 C 22.207031 -8.390625 22.929688 -8.738281 23.515625 -9.15625 C 24.097656 -9.582031 24.535156 -10.0625 24.828125 -10.59375 C 25.128906 -11.132812 25.28125 -11.6875 25.28125 -12.25 C 25.28125 -12.894531 25.070312 -13.492188 24.65625 -14.046875 C 24.238281 -14.609375 23.585938 -15.050781 22.703125 -15.375 C 21.097656 -15.9375 19.40625 -16.40625 17.625 -16.78125 C 15.84375 -17.164062 14.109375 -17.644531 12.421875 -18.21875 C 10.742188 -18.800781 9.179688 -19.570312 7.734375 -20.53125 C 6.296875 -21.5 5.160156 -22.84375 4.328125 -24.5625 C 3.566406 -26.082031 3.1875 -27.707031 3.1875 -29.4375 C 3.1875 -31.351562 3.632812 -33.210938 4.53125 -35.015625 C 5.4375 -36.816406 6.671875 -38.335938 8.234375 -39.578125 C 9.710938 -40.742188 11.375 -41.632812 13.21875 -42.25 C 15.0625 -42.875 17.003906 -43.1875 19.046875 -43.1875 C 21.085938 -43.1875 23.035156 -42.882812 24.890625 -42.28125 C 26.753906 -41.6875 28.425781 -40.804688 29.90625 -39.640625 C 31.351562 -38.554688 32.492188 -37.296875 33.328125 -35.859375 L 26.484375 -31.171875 C 25.640625 -32.335938 24.585938 -33.269531 23.328125 -33.96875 C 22.066406 -34.664062 20.65625 -35.015625 19.09375 -35.015625 C 16.9375 -35.015625 15.265625 -34.535156 14.078125 -33.578125 C 12.898438 -32.617188 12.3125 -31.359375 12.3125 -29.796875 C 12.3125 -29.066406 12.640625 -28.421875 13.296875 -27.859375 C 13.960938 -27.304688 14.828125 -26.804688 15.890625 -26.359375 C 16.953125 -25.921875 18.140625 -25.53125 19.453125 -25.1875 C 20.773438 -24.851562 22.085938 -24.515625 23.390625 -24.171875 C 24.691406 -23.835938 25.921875 -23.488281 27.078125 -23.125 C 28.242188 -22.757812 29.1875 -22.359375 29.90625 -21.921875 Z M 29.90625 -21.921875 "/></g></g></g><g fill="#ffffff" fill-opacity="1"><g transform="translate(41.69348, 236.736753)"><g><path d="M 22.890625 -8.28125 C 24.804688 -8.28125 26.6875 -8.722656 28.53125 -9.609375 C 30.375 -10.492188 32.234375 -11.972656 34.109375 -14.046875 L 40 -8.46875 C 37.632812 -5.425781 34.941406 -3.125 31.921875 -1.5625 C 28.898438 0 25.785156 0.78125 22.578125 0.78125 C 19.703125 0.78125 17 0.191406 14.46875 -0.984375 C 11.945312 -2.171875 9.753906 -3.765625 7.890625 -5.765625 C 6.035156 -7.765625 4.578125 -10.09375 3.515625 -12.75 C 2.453125 -15.414062 1.921875 -18.253906 1.921875 -21.265625 C 1.921875 -24.265625 2.46875 -27.082031 3.5625 -29.71875 C 4.664062 -32.363281 6.160156 -34.6875 8.046875 -36.6875 C 9.929688 -38.695312 12.15625 -40.28125 14.71875 -41.4375 C 17.28125 -42.601562 20.003906 -43.1875 22.890625 -43.1875 C 25.566406 -43.1875 28.113281 -42.6875 30.53125 -41.6875 C 32.957031 -40.6875 35.332031 -39.023438 37.65625 -36.703125 L 32.375 -30.265625 C 30.6875 -31.828125 29.09375 -32.878906 27.59375 -33.421875 C 26.09375 -33.960938 24.523438 -34.234375 22.890625 -34.234375 C 21.242188 -34.234375 19.6875 -33.890625 18.21875 -33.203125 C 16.757812 -32.523438 15.488281 -31.601562 14.40625 -30.4375 C 13.332031 -29.28125 12.484375 -27.910156 11.859375 -26.328125 C 11.242188 -24.753906 10.9375 -23.066406 10.9375 -21.265625 C 10.9375 -19.460938 11.242188 -17.78125 11.859375 -16.21875 C 12.484375 -14.65625 13.332031 -13.28125 14.40625 -12.09375 C 15.488281 -10.914062 16.757812 -9.984375 18.21875 -9.296875 C 19.6875 -8.617188 21.242188 -8.28125 22.890625 -8.28125 Z M 22.890625 -8.28125 "/></g></g></g><g fill="#ffffff" fill-opacity="1"><g transform="translate(83.436175, 236.736753)"><g><path d="M 22.9375 -43.1875 C 25.820312 -43.1875 28.546875 -42.601562 31.109375 -41.4375 C 33.671875 -40.28125 35.898438 -38.695312 37.796875 -36.6875 C 39.703125 -34.6875 41.207031 -32.363281 42.3125 -29.71875 C 43.414062 -27.082031 43.96875 -24.265625 43.96875 -21.265625 C 43.96875 -18.296875 43.414062 -15.46875 42.3125 -12.78125 C 41.207031 -10.101562 39.703125 -7.765625 37.796875 -5.765625 C 35.898438 -3.765625 33.671875 -2.171875 31.109375 -0.984375 C 28.546875 0.191406 25.820312 0.78125 22.9375 0.78125 C 20.0625 0.78125 17.34375 0.191406 14.78125 -0.984375 C 12.21875 -2.171875 9.992188 -3.765625 8.109375 -5.765625 C 6.222656 -7.765625 4.726562 -10.101562 3.625 -12.78125 C 2.53125 -15.46875 1.984375 -18.296875 1.984375 -21.265625 C 1.984375 -24.265625 2.53125 -27.082031 3.625 -29.71875 C 4.726562 -32.363281 6.222656 -34.6875 8.109375 -36.6875 C 9.992188 -38.695312 12.21875 -40.28125 14.78125 -41.4375 C 17.34375 -42.601562 20.0625 -43.1875 22.9375 -43.1875 Z M 22.9375 -8.28125 C 24.582031 -8.28125 26.125 -8.617188 27.5625 -9.296875 C 29.007812 -9.984375 30.269531 -10.914062 31.34375 -12.09375 C 32.425781 -13.28125 33.28125 -14.65625 33.90625 -16.21875 C 34.53125 -17.78125 34.84375 -19.460938 34.84375 -21.265625 C 34.84375 -23.066406 34.53125 -24.753906 33.90625 -26.328125 C 33.28125 -27.910156 32.425781 -29.289062 31.34375 -30.46875 C 30.269531 -31.65625 29.007812 -32.585938 27.5625 -33.265625 C 26.125 -33.953125 24.582031 -34.296875 22.9375 -34.296875 C 21.300781 -34.296875 19.757812 -33.953125 18.3125 -33.265625 C 16.875 -32.585938 15.613281 -31.65625 14.53125 -30.46875 C 13.445312 -29.289062 12.59375 -27.910156 11.96875 -26.328125 C 11.351562 -24.753906 11.046875 -23.066406 11.046875 -21.265625 C 11.046875 -19.460938 11.351562 -17.78125 11.96875 -16.21875 C 12.59375 -14.65625 13.445312 -13.28125 14.53125 -12.09375 C 15.613281 -10.914062 16.875 -9.984375 18.3125 -9.296875 C 19.757812 -8.617188 21.300781 -8.28125 22.9375 -8.28125 Z M 22.9375 -8.28125 "/></g></g></g><g fill="#ffffff" fill-opacity="1"><g transform="translate(129.383168, 236.736753)"><g><path d="M 29.015625 -42.578125 L 46.78125 0 L 36.9375 0 L 33.09375 -9.125 L 15.015625 -9.125 L 11.234375 0 L 1.328125 0 L 19.09375 -42.578125 Z M 29.671875 -17.421875 L 24.078125 -30.8125 L 18.5 -17.421875 Z M 29.671875 -17.421875 "/></g></g></g><g fill="#ffffff" fill-opacity="1"><g transform="translate(177.49238, 236.736753)"><g><path d="M 22.890625 -8.28125 C 24.804688 -8.28125 26.6875 -8.722656 28.53125 -9.609375 C 30.375 -10.492188 32.234375 -11.972656 34.109375 -14.046875 L 40 -8.46875 C 37.632812 -5.425781 34.941406 -3.125 31.921875 -1.5625 C 28.898438 0 25.785156 0.78125 22.578125 0.78125 C 19.703125 0.78125 17 0.191406 14.46875 -0.984375 C 11.945312 -2.171875 9.753906 -3.765625 7.890625 -5.765625 C 6.035156 -7.765625 4.578125 -10.09375 3.515625 -12.75 C 2.453125 -15.414062 1.921875 -18.253906 1.921875 -21.265625 C 1.921875 -24.265625 2.46875 -27.082031 3.5625 -29.71875 C 4.664062 -32.363281 6.160156 -34.6875 8.046875 -36.6875 C 9.929688 -38.695312 12.15625 -40.28125 14.71875 -41.4375 C 17.28125 -42.601562 20.003906 -43.1875 22.890625 -43.1875 C 25.566406 -43.1875 28.113281 -42.6875 30.53125 -41.6875 C 32.957031 -40.6875 35.332031 -39.023438 37.65625 -36.703125 L 32.375 -30.265625 C 30.6875 -31.828125 29.09375 -32.878906 27.59375 -33.421875 C 26.09375 -33.960938 24.523438 -34.234375 22.890625 -34.234375 C 21.242188 -34.234375 19.6875 -33.890625 18.21875 -33.203125 C 16.757812 -32.523438 15.488281 -31.601562 14.40625 -30.4375 C 13.332031 -29.28125 12.484375 -27.910156 11.859375 -26.328125 C 11.242188 -24.753906 10.9375 -23.066406 10.9375 -21.265625 C 10.9375 -19.460938 11.242188 -17.78125 11.859375 -16.21875 C 12.484375 -14.65625 13.332031 -13.28125 14.40625 -12.09375 C 15.488281 -10.914062 16.757812 -9.984375 18.21875 -9.296875 C 19.6875 -8.617188 21.242188 -8.28125 22.890625 -8.28125 Z M 22.890625 -8.28125 "/></g></g></g><g fill="#ffffff" fill-opacity="1"><g transform="translate(219.235075, 236.736753)"><g><path d="M 31.40625 -42.578125 L 40.546875 -42.578125 L 40.546875 0 L 31.40625 0 L 31.40625 -18.3125 L 11.890625 -18.3125 L 11.890625 0 L 2.828125 0 L 2.828125 -42.578125 L 11.890625 -42.578125 L 11.890625 -26.609375 L 31.40625 -26.609375 Z M 31.40625 -42.578125 "/></g></g></g><g fill="#ffffff" fill-opacity="1"><g transform="translate(262.599444, 236.736753)"><g><path d="M 2.890625 -42.578125 L 29.484375 -42.578125 L 29.484375 -34.296875 L 12.015625 -34.296875 L 12.015625 -26.609375 L 27.390625 -26.609375 L 27.390625 -18.3125 L 12.015625 -18.3125 L 12.015625 -8.234375 L 29.484375 -8.234375 L 29.484375 0 L 2.890625 0 Z M 2.890625 -42.578125 "/></g></g></g><g fill="#ffffff" fill-opacity="1"><g transform="translate(294.972562, 236.736753)"><g><path d="M 29.90625 -21.921875 C 31.59375 -20.921875 32.875 -19.640625 33.75 -18.078125 C 34.632812 -16.515625 35.078125 -14.710938 35.078125 -12.671875 C 35.078125 -10.753906 34.613281 -8.960938 33.6875 -7.296875 C 32.769531 -5.640625 31.472656 -4.171875 29.796875 -2.890625 C 28.273438 -1.722656 26.539062 -0.828125 24.59375 -0.203125 C 22.65625 0.410156 20.601562 0.738281 18.4375 0.78125 C 16.28125 0.78125 14.21875 0.484375 12.25 -0.109375 C 10.289062 -0.710938 8.550781 -1.617188 7.03125 -2.828125 C 4.75 -4.546875 3.1875 -6.625 2.34375 -9.0625 L 10.75 -12.96875 C 10.75 -12.570312 10.890625 -12.070312 11.171875 -11.46875 C 11.453125 -10.875 11.890625 -10.296875 12.484375 -9.734375 C 13.085938 -9.171875 13.867188 -8.6875 14.828125 -8.28125 C 15.796875 -7.882812 16.976562 -7.6875 18.375 -7.6875 C 19.5 -7.6875 20.488281 -7.828125 21.34375 -8.109375 C 22.207031 -8.390625 22.929688 -8.738281 23.515625 -9.15625 C 24.097656 -9.582031 24.535156 -10.0625 24.828125 -10.59375 C 25.128906 -11.132812 25.28125 -11.6875 25.28125 -12.25 C 25.28125 -12.894531 25.070312 -13.492188 24.65625 -14.046875 C 24.238281 -14.609375 23.585938 -15.050781 22.703125 -15.375 C 21.097656 -15.9375 19.40625 -16.40625 17.625 -16.78125 C 15.84375 -17.164062 14.109375 -17.644531 12.421875 -18.21875 C 10.742188 -18.800781 9.179688 -19.570312 7.734375 -20.53125 C 6.296875 -21.5 5.160156 -22.84375 4.328125 -24.5625 C 3.566406 -26.082031 3.1875 -27.707031 3.1875 -29.4375 C 3.1875 -31.351562 3.632812 -33.210938 4.53125 -35.015625 C 5.4375 -36.816406 6.671875 -38.335938 8.234375 -39.578125 C 9.710938 -40.742188 11.375 -41.632812 13.21875 -42.25 C 15.0625 -42.875 17.003906 -43.1875 19.046875 -43.1875 C 21.085938 -43.1875 23.035156 -42.882812 24.890625 -42.28125 C 26.753906 -41.6875 28.425781 -40.804688 29.90625 -39.640625 C 31.351562 -38.554688 32.492188 -37.296875 33.328125 -35.859375 L 26.484375 -31.171875 C 25.640625 -32.335938 24.585938 -33.269531 23.328125 -33.96875 C 22.066406 -34.664062 20.65625 -35.015625 19.09375 -35.015625 C 16.9375 -35.015625 15.265625 -34.535156 14.078125 -33.578125 C 12.898438 -32.617188 12.3125 -31.359375 12.3125 -29.796875 C 12.3125 -29.066406 12.640625 -28.421875 13.296875 -27.859375 C 13.960938 -27.304688 14.828125 -26.804688 15.890625 -26.359375 C 16.953125 -25.921875 18.140625 -25.53125 19.453125 -25.1875 C 20.773438 -24.851562 22.085938 -24.515625 23.390625 -24.171875 C 24.691406 -23.835938 25.921875 -23.488281 27.078125 -23.125 C 28.242188 -22.757812 29.1875 -22.359375 29.90625 -21.921875 Z M 29.90625 -21.921875 "/></g></g></g><path stroke-linecap="butt" transform="matrix(0.672369, 0, 0, 0.672369, 62.939429, 112.222785)" fill="none" stroke-linejoin="miter" d="M 66.517964 46.41334 C 66.738732 50.050199 66.942071 53.599914 67.127981 57.068292 C 67.308081 60.536671 67.488181 63.743614 67.650852 66.694932 C 67.650852 73.428351 67.383607 79.818998 66.849116 85.866875 C 66.314625 91.903132 65.106212 97.782528 63.223876 103.522492 C 63.003108 104.27775 62.927582 104.887767 63.003108 105.346731 C 63.078634 105.811506 63.531789 106.223993 64.356763 106.590003 C 66.994358 107.571839 69.637762 108.536246 72.275357 109.500652 C 74.930381 110.436011 77.695788 111.133172 80.57158 111.574708 C 85.015985 112.329966 89.437151 112.068531 93.823459 110.796211 C 94.270805 110.63354 94.741389 110.494108 95.235211 110.383724 C 95.734844 110.27334 96.205428 110.145527 96.646964 109.994475 C 97.942522 109.611036 98.732639 110.023524 99.028932 111.243556 C 99.418181 112.364824 98.999884 113.195609 97.785661 113.730099 C 95.752273 114.485358 93.695646 115.060516 91.609971 115.443955 C 89.530106 115.815774 87.386334 116.036542 85.196085 116.112068 C 80.066138 116.25731 74.930381 115.53691 69.783004 113.950867 C 68.58621 113.584857 67.412655 113.195609 66.268148 112.788931 C 65.14107 112.364824 63.973325 111.958147 62.753292 111.574708 C 61.632024 111.133172 60.911623 110.964692 60.597901 111.075076 C 60.301607 111.185459 59.848452 111.731569 59.238435 112.707596 C 58.651658 113.776577 58.012593 114.781651 57.332861 115.722819 C 56.647318 116.663988 55.926918 117.587727 55.17166 118.488227 C 52.534065 121.51507 49.530461 123.589126 46.155037 124.716204 C 42.797042 125.860711 39.154373 126.162814 35.227029 125.628323 C 32.275712 125.262314 30.050604 123.902849 28.557517 121.561548 C 27.04119 119.220247 26.657751 116.495507 27.395581 113.398947 C 27.930071 111.202889 28.842191 109.332172 30.13194 107.780987 C 31.40426 106.235612 32.990302 104.934244 34.890068 103.882692 C 38.358446 101.907401 42.181216 100.995281 46.346756 101.140523 C 47.770128 101.233478 48.606722 101.152143 48.862347 100.890707 C 49.141212 100.617652 49.425886 99.757819 49.72218 98.317019 C 50.256671 95.516753 50.674968 92.722297 50.965451 89.933651 C 51.279174 87.133385 51.476703 84.304071 51.546419 81.439899 C 51.772997 74.561238 51.993765 67.688387 52.214533 60.827155 C 52.45273 53.948494 52.644449 47.069833 52.795501 40.191173 C 52.795501 39.801924 52.81293 39.459153 52.847788 39.162859 C 52.888456 38.872375 52.905885 38.564462 52.905885 38.25074 C 52.830359 36.664697 53.550759 35.833913 55.061276 35.764197 C 56.356834 35.688671 57.600106 35.595716 58.7969 35.485332 C 60.016933 35.374948 61.225346 35.200658 62.42214 34.956651 C 63.32845 34.886935 63.979134 35.043796 64.385812 35.427235 C 64.809918 35.799055 65.106212 36.362594 65.274693 37.117852 C 65.936996 40.214411 66.349484 43.31678 66.517964 46.41334 Z M 45.986556 105.346731 C 44.255271 105.050438 42.611132 105.265396 41.059947 105.985796 C 39.514573 106.682958 38.248062 107.775177 37.272036 109.250836 C 36.29601 110.726495 35.842855 112.364824 35.918381 114.171635 C 35.918381 116.297978 36.516778 118.040882 37.713572 119.400347 C 38.619882 120.451899 39.56686 120.60295 40.566125 119.847692 C 40.786893 119.626924 41.00766 119.394537 41.228428 119.15634 C 41.449196 118.935572 41.681583 118.708995 41.91978 118.488227 C 43.1921 116.832468 44.261081 115.077945 45.132533 113.230467 C 46.015604 111.371369 46.788292 109.459985 47.456405 107.507932 C 47.694602 106.746864 47.659744 106.241422 47.346021 105.985796 C 47.049727 105.706931 46.596572 105.497783 45.986556 105.346731 Z M 130.075861 82.799364 C 130.982171 83.165374 131.412087 83.635958 131.377229 84.211116 C 131.342371 84.780465 131.173891 85.373052 130.877597 85.977259 C 129.512322 89.155154 128.129618 92.362097 126.729485 95.609708 C 125.346782 98.857319 123.93503 102.09912 122.494229 105.346731 C 122.035264 106.322758 121.5763 107.292974 121.111525 108.251571 C 120.669989 109.192739 120.181976 110.151336 119.647486 111.133172 C 118.375166 113.323422 116.585785 114.839748 114.279342 115.670532 C 111.972899 116.495507 109.614169 116.646558 107.197342 116.112068 C 104.780515 115.577577 102.816844 114.293638 101.300517 112.26606 C 100.324491 110.976311 99.551803 109.616846 98.976645 108.199284 C 98.407297 106.758483 97.936713 105.282825 97.564893 103.772308 C 96.960686 101.425197 96.559818 99.049038 96.379718 96.632212 C 96.17638 94.215385 96.118283 91.94961 96.211238 89.823267 C 96.118283 85.140665 96.397147 80.649783 97.042022 76.35062 C 97.686896 72.034027 98.569968 67.763913 99.697045 63.540276 C 99.79 63.081311 99.929433 62.628156 100.115342 62.18662 C 100.295442 61.721846 100.463923 61.262881 100.609165 60.803916 C 100.998414 59.752364 101.718814 59.258542 102.770366 59.334067 C 102.991134 59.334067 103.177044 59.334067 103.322286 59.334067 C 103.490766 59.334067 103.647628 59.334067 103.79287 59.334067 C 106.058645 59.409593 107.400681 59.65941 107.807358 60.083516 C 108.231465 60.490194 108.33023 61.785752 108.109462 63.981811 C 107.795739 68.519171 107.482016 73.021673 107.168294 77.483507 C 106.872 81.933722 106.808094 86.383937 106.976574 90.85158 C 107.04629 93.338123 107.121816 95.813047 107.197342 98.264732 C 107.267058 100.716417 107.534304 103.150672 107.999078 105.567499 C 108.14432 106.549335 108.365088 107.496313 108.661381 108.420052 C 108.957675 109.320552 109.335304 110.192004 109.794269 111.016979 C 110.776105 112.754073 111.798608 112.829599 112.86759 111.243556 C 113.309125 110.63354 113.698374 109.988665 114.029525 109.303123 C 114.378106 108.623391 114.749926 107.949468 115.139174 107.287164 C 117.015701 103.650305 118.880608 100.007636 120.728086 96.353347 C 122.587184 92.687439 124.46371 89.03315 126.340237 85.396291 C 126.415763 85.175523 126.508718 84.972184 126.619102 84.792084 C 126.729485 84.588745 126.83406 84.373787 126.921205 84.153019 C 127.438266 83.176993 127.862373 82.630883 128.193525 82.520499 C 128.547915 82.392686 129.175361 82.485641 130.075861 82.799364 Z M 106.285222 53.332668 C 103.107328 53.402384 101.486427 52.159113 101.410901 49.597044 C 101.341185 48.156244 101.753672 46.930401 102.659982 45.913707 C 103.560483 44.885394 104.658512 44.368332 105.948261 44.368332 C 107.534304 44.368332 108.800814 44.745962 109.741982 45.50122 C 110.68315 46.256478 111.153734 47.31965 111.153734 48.684924 C 111.153734 51.705958 109.527024 53.257142 106.285222 53.332668 Z M 138.25589 66.474164 C 138.093219 66.253396 137.936358 66.015199 137.785306 65.753764 C 137.640064 65.474899 137.419296 65.155367 137.123003 64.783547 C 136.588512 66.886651 136.146976 68.925849 135.792586 70.90114 C 135.461434 72.853192 135.112853 74.782006 134.741034 76.681771 C 133.451285 83.543003 131.783907 90.288041 129.73309 96.911076 C 127.705512 103.510872 125.364211 110.023524 122.709187 116.44322 C 122.192126 117.88402 121.663445 118.732234 121.128954 118.987859 C 120.594464 119.266724 119.693963 119.289963 118.415834 119.069195 C 117.126085 118.830998 116.67293 118.110598 117.062178 116.913804 C 117.433998 115.937778 117.770959 114.938513 118.084682 113.927628 C 118.380976 112.893505 118.712127 111.847763 119.083947 110.796211 C 121.814496 102.865998 124.080272 94.825401 125.887082 86.668611 C 127.693892 78.500201 129.477464 70.291124 131.226178 62.047188 C 131.522471 60.699342 131.818765 59.345687 132.115059 57.980412 C 132.428781 56.615137 132.730885 55.284721 133.027178 53.994972 C 134.003205 49.992102 136.117928 49.201986 139.365539 51.613003 C 141.631314 53.367526 143.449744 55.331198 144.815019 57.509828 C 147.545568 61.896136 150.101827 66.398638 152.477986 71.011524 C 154.859955 75.62441 156.841056 80.417395 158.427098 85.396291 C 158.868634 86.69185 159.240454 87.40644 159.536747 87.557492 C 159.84466 87.702734 160.687064 87.511014 162.052339 86.976524 C 163.783623 86.221265 165.48005 85.425339 167.141618 84.594555 C 168.803186 83.763771 170.389229 82.828412 171.899746 81.77686 C 172.271565 81.480567 172.666624 81.201702 173.09073 80.946076 C 173.514837 80.667212 173.950563 80.458063 174.392098 80.307011 C 175.757373 79.993289 176.657874 80.370918 177.105219 81.439899 C 177.343416 81.887244 177.325987 82.282303 177.047122 82.630883 C 176.791496 82.962035 176.512632 83.287377 176.216338 83.6011 C 174.926589 84.5016 173.596172 85.40791 172.230898 86.31422 C 170.888861 87.214721 169.494538 88.010647 168.053738 88.690379 C 167.298479 89.062199 166.525792 89.422399 165.729866 89.77098 C 164.939749 90.102132 164.161252 90.427474 163.405994 90.741196 C 161.895477 91.252448 161.035645 91.688174 160.832306 92.036755 C 160.652206 92.373716 160.716112 93.256788 161.029835 94.697588 C 161.250603 95.522563 161.413274 96.376586 161.523658 97.242228 C 161.634042 98.10787 161.773474 98.956084 161.941955 99.786868 C 162.238248 101.448436 162.307964 103.098385 162.162722 104.736715 C 162.01748 106.363425 161.750235 108.001755 161.360987 109.663323 C 160.454677 113.056176 158.491005 115.734439 155.464162 117.686491 C 152.826567 119.51654 150.05535 120.573902 147.138891 120.870196 C 144.222431 121.183918 141.300162 120.806289 138.366274 119.737308 C 135.71125 118.830998 133.683672 117.401817 132.27773 115.443955 C 130.895026 113.474473 130.203674 111.278414 130.203674 108.861588 C 130.203674 106.444761 130.9996 104.10346 132.585643 101.831875 C 134.026443 99.786868 135.699631 98.125299 137.622635 96.852979 C 139.539829 95.563231 141.596456 94.430343 143.792515 93.448507 C 145.082264 92.8443 145.965335 92.350478 146.447539 91.984468 C 146.947171 91.595219 147.15632 91.107206 147.080794 90.514619 C 147.011078 89.910412 146.77869 88.957625 146.389442 87.667876 C 145.268174 84.031016 143.984234 80.463873 142.543434 76.960636 C 141.108443 73.43416 139.679262 69.942543 138.25589 66.474164 Z M 149.462762 112.928363 C 149.828772 111.876811 150.090208 110.80783 150.23545 109.72142 C 150.403931 108.611771 150.485266 107.606697 150.485266 106.706196 C 150.485266 104.969102 150.345834 103.365631 150.072779 101.889972 C 149.811343 100.414313 149.497621 98.956084 149.131611 97.515283 C 148.893414 96.318489 148.283397 95.975718 147.301562 96.492779 C 145.349509 97.492044 143.577557 98.671409 141.991514 100.036684 C 140.405472 101.38453 139.197058 103.115814 138.366274 105.236347 C 137.686542 107.194209 137.581967 109.064926 138.064171 110.854308 C 138.563803 112.62626 139.603736 114.107728 141.189778 115.310332 C 142.851347 116.524555 144.454818 116.902184 146.006003 116.44322 C 147.551378 116.001684 148.707504 114.828129 149.462762 112.928363 Z M 235.812033 87.667876 C 235.881749 88.423134 235.724888 88.922767 235.341449 89.160963 C 234.969629 89.381731 234.528094 89.567641 234.011032 89.712883 C 231.966025 90.084703 229.955876 90.462332 227.980585 90.85158 C 226.022723 91.21759 224.030002 91.635887 222.002424 92.094852 C 221.543459 92.170378 221.235546 92.205236 221.090304 92.205236 C 219.283494 92.350478 217.825264 92.879158 216.721425 93.779659 C 215.629205 94.685969 214.63575 95.969908 213.72944 97.625667 C 208.808641 107.606697 200.715757 113.387328 189.468217 114.973371 C 187.876365 115.199948 186.993294 115.426526 186.807384 115.670532 C 186.627284 115.8913 186.487852 116.722084 186.394897 118.157075 C 186.319371 119.133101 186.226416 120.097508 186.116032 121.032867 C 186.005648 121.974035 185.953361 122.944251 185.953361 123.943516 C 185.877835 125.378507 185.157435 126.098907 183.79216 126.098907 C 182.51984 126.174433 181.241711 126.22672 179.946152 126.267388 C 178.656403 126.302246 177.372464 126.354533 176.100144 126.430059 C 174.589628 126.581111 173.677508 125.785185 173.363785 124.0539 C 172.846724 120.637808 172.37614 117.215907 171.952033 113.788196 C 171.545355 110.354675 171.307158 106.897916 171.231633 103.412108 C 170.842384 93.065068 171.068962 82.770316 171.893936 72.53366 C 172.72472 62.297004 174.351431 52.112635 176.768257 41.986364 C 177.08198 40.545563 177.436371 39.15705 177.843048 37.809204 C 178.267155 36.443929 178.702881 35.078654 179.144416 33.71338 C 179.678907 31.982095 180.742078 31.110643 182.328121 31.110643 C 183.228621 31.186169 184.134931 31.203598 185.041241 31.16874 C 185.941742 31.133882 186.853862 31.151311 187.777601 31.221027 C 188.974395 31.372079 189.706414 31.604466 189.96204 31.918189 C 190.240905 32.208673 190.415195 33.004599 190.490721 34.294348 C 190.490721 34.904364 190.473292 35.491142 190.432624 36.0663 C 190.397766 36.61822 190.339669 37.199187 190.269953 37.809204 C 189.805179 43.839651 189.363643 49.864289 188.939537 55.877308 C 188.532859 61.890327 188.219136 67.914964 187.998368 73.945412 C 187.998368 74.479903 187.998368 75.014393 187.998368 75.548884 C 187.998368 76.065945 187.998368 76.588816 187.998368 77.123307 C 188.683911 76.978065 189.154495 76.6992 189.410121 76.298332 C 189.665747 75.874226 189.956231 75.502406 190.269953 75.188684 C 191.391221 73.916364 192.535728 72.736999 193.697664 71.644779 C 194.877029 70.54094 196.190017 69.535865 197.625008 68.629555 C 198.752086 67.949823 199.896593 67.386284 201.058529 66.944748 C 202.237894 66.479974 203.510213 66.212728 204.875488 66.143012 C 209.947339 65.899006 213.502863 68.089255 215.530441 72.696331 C 216.430941 74.671622 216.99448 76.722439 217.215248 78.842972 C 217.459255 80.946076 217.505732 83.095658 217.35468 85.285907 C 217.279155 87.098527 217.389538 88.062934 217.685832 88.190747 C 217.982126 88.301131 218.958152 88.237224 220.61972 87.999027 C 222.740254 87.702734 224.860787 87.389011 226.98132 87.057859 C 229.107663 86.709279 231.216576 86.383937 233.31968 86.087643 C 233.929697 86.017927 234.475807 86.052785 234.9522 86.203836 C 235.451833 86.349078 235.736507 86.837092 235.812033 87.667876 Z M 201.360632 101.611107 C 201.825406 101.001091 202.278561 100.356216 202.720097 99.676484 C 203.179062 98.990942 203.486975 98.125299 203.632217 97.073747 C 200.605374 97.904532 197.729582 98.892177 194.999033 100.036684 C 192.285912 101.157952 189.845847 102.819521 187.667217 105.01558 C 187.208252 105.457115 186.941007 105.968367 186.865481 106.537716 C 186.789955 107.107064 186.755097 107.688032 186.755097 108.28062 C 186.679571 109.570369 186.807384 110.354675 187.144346 110.63354 C 187.492926 110.889166 188.265614 110.825259 189.468217 110.436011 C 191.95476 109.680752 194.162439 108.547865 196.079633 107.037348 C 198.014256 105.521022 199.774589 103.714211 201.360632 101.611107 Z M 206.705537 89.933651 C 207.460796 87.59235 207.966238 85.216191 208.227673 82.799364 C 208.483299 80.382537 208.268341 77.965711 207.588609 75.548884 C 206.83335 72.742808 205.828276 71.180005 204.573385 70.843043 C 203.335923 70.494462 201.744071 71.377534 199.786209 73.503876 C 197.131185 76.211187 194.813123 79.203172 192.843641 82.468212 C 190.885779 85.710014 189.200972 89.108676 187.777601 92.646771 C 187.167584 94.163098 187.086249 95.906002 187.527784 97.875483 C 190.403576 96.364966 193.320035 95.121695 196.271352 94.139859 C 199.22267 93.146404 202.168177 92.234284 205.096256 91.4035 C 206.002566 91.107206 206.537057 90.619193 206.705537 89.933651 Z M 258.156061 83.711484 C 258.156061 83.711484 257.964342 83.78701 257.575093 83.932252 C 257.575093 84.153019 257.575093 84.385407 257.575093 84.623604 C 257.575093 84.844371 257.609952 85.065139 257.685477 85.285907 C 258.661504 88.998292 258.940368 92.646771 258.516262 96.242963 C 258.109584 99.821726 257.197464 103.348201 255.774093 106.81658 C 254.18805 110.668398 251.904846 113.35247 248.912861 114.862987 C 245.926686 116.379313 242.429258 116.681417 238.426389 115.780916 C 236.305856 115.246426 234.528094 114.357545 233.087293 113.120083 C 231.669731 111.871002 230.496176 110.337246 229.572437 108.530436 C 228.520885 106.479619 227.829533 104.388134 227.498381 102.250172 C 227.1498 100.088971 227.045226 97.916151 227.196278 95.720092 C 227.579717 91.717223 228.364024 87.842166 229.543389 84.100732 C 230.705324 80.353489 232.384322 76.821204 234.580381 73.503876 C 235.265923 72.452324 236.003752 71.453059 236.793869 70.511891 C 237.589795 69.553294 238.472866 68.693462 239.448893 67.938203 C 241.185987 66.665883 242.7546 66.032628 244.154733 66.032628 C 245.554866 66.032628 247.088621 66.631025 248.75019 67.827819 C 249.429922 68.36231 250.086416 68.920039 250.713862 69.489388 C 251.358736 70.041307 251.986182 70.622275 252.596198 71.232292 C 253.037734 71.691256 253.490889 72.156031 253.949853 72.614995 C 254.408818 73.056531 254.861973 73.503876 255.303509 73.945412 C 258.034058 76.745678 261.026043 78.738398 264.267845 79.917763 C 267.515456 81.079699 271.105838 81.137796 275.033181 80.086244 C 275.643198 79.917763 276.259024 79.78414 276.886469 79.673756 C 277.531344 79.563372 278.158789 79.470418 278.768805 79.394892 C 279.303296 79.24965 279.77388 79.24965 280.180557 79.394892 C 280.604664 79.540134 280.889338 79.917763 281.03458 80.527779 C 281.330874 81.730383 280.842861 82.520499 279.570541 82.909748 C 276.398456 83.665006 273.208942 84.257594 269.996189 84.6817 C 266.789246 85.082568 263.553254 84.908278 260.288214 84.153019 C 259.916394 84.007777 259.556194 83.914823 259.207613 83.874155 C 258.876462 83.839297 258.522071 83.78701 258.156061 83.711484 Z M 246.588989 76.321571 C 246.368221 76.031087 246.135834 75.734793 245.897637 75.4385 C 245.676869 75.124777 245.334098 74.89239 244.875133 74.747148 C 244.282546 75.42688 243.794533 76.16471 243.405284 76.960636 C 243.039275 77.750752 242.696504 78.564108 242.382781 79.394892 C 241.703048 81.590951 241.12789 83.821868 240.668925 86.087643 C 240.22739 88.359228 239.85557 90.619193 239.559276 92.867539 C 239.175838 95.284366 239.001547 97.712812 239.036405 100.147068 C 239.071263 102.563895 239.472131 104.980721 240.22739 107.397548 C 240.390061 107.984326 240.58759 108.582723 240.808358 109.192739 C 241.029125 109.802756 241.371897 110.372104 241.830861 110.906595 C 243.027655 112.492637 244.38712 112.608831 245.897637 111.243556 C 246.966618 110.26172 247.878738 108.983591 248.639806 107.397548 C 251.201875 102.029404 252.235998 96.760025 251.736365 91.595219 C 251.254162 86.412985 249.540306 81.323705 246.588989 76.321571 Z M 339.177856 82.909748 C 340.229408 83.130516 340.903331 83.41519 341.193815 83.763771 C 341.507537 84.100732 341.519157 84.792084 341.222863 85.843636 C 340.00864 90.450712 338.567839 94.953214 336.906271 99.345332 C 335.244702 103.714211 333.135789 107.868132 330.57372 111.795476 C 329.498929 113.381518 328.406709 114.706125 327.279631 115.780916 C 325.693589 117.215907 323.654391 118.122217 321.162039 118.488227 C 318.675496 118.877476 316.479437 118.61023 314.579671 117.686491 C 313.528119 117.244955 312.697335 116.605891 312.087319 115.780916 C 311.477302 114.950132 310.954431 113.997344 310.512896 112.928363 C 309.827353 111.197079 309.333531 109.407697 309.019808 107.560219 C 308.723514 105.695312 308.537604 103.824595 308.462079 101.942259 C 308.241311 98.090441 308.25874 94.261862 308.520175 90.462332 C 308.775801 86.645372 308.99076 82.805174 309.153431 78.953356 C 309.380008 74.782006 309.072095 70.622275 308.241311 66.474164 C 308.096069 65.864148 307.921778 65.201844 307.71844 64.481444 C 307.53253 63.761043 307.027088 63.331127 306.196304 63.180075 C 305.441045 63.034833 304.831029 63.209124 304.372064 63.708756 C 303.924719 64.18515 303.477373 64.690592 303.012599 65.230892 C 298.713436 70.593227 295.430967 76.52491 293.165192 83.020132 C 291.358381 88.237224 289.772339 93.512414 288.407064 98.8457 C 287.041789 104.155747 285.868234 109.500652 284.892208 114.862987 C 284.595914 116.379313 284.293811 117.244955 283.980088 117.465723 C 283.683794 117.70392 282.818152 117.860782 281.377352 117.936307 C 280.842861 117.936307 280.30837 117.953736 279.77388 117.994404 C 279.256818 118.029262 278.728138 118.046691 278.193647 118.046691 C 276.462362 118.197743 275.393381 118.093169 274.986704 117.744588 C 274.562597 117.413436 274.237255 116.449029 274.016487 114.862987 C 273.702765 112.910934 273.400661 110.953072 273.104368 109.00102 C 272.808074 107.025729 272.622164 105.050438 272.552448 103.080956 C 272.238725 95.906002 272.273583 88.748476 272.662832 81.60838 C 273.028842 74.468283 273.824768 67.351426 275.038991 60.246187 C 275.038991 59.932464 275.097088 59.630361 275.207472 59.334067 C 275.317856 59.037774 275.370143 58.73567 275.370143 58.421948 C 275.521194 56.911431 276.386837 56.191031 277.972879 56.266557 C 279.77969 56.266557 281.708503 56.225889 283.753511 56.150363 C 285.118785 56.080647 285.879853 56.760379 286.025095 58.20118 C 286.100621 59.177206 286.135479 60.042848 286.135479 60.803916 C 286.135479 63.604182 286.135479 66.427686 286.135479 69.26862 C 286.135479 72.092124 286.135479 74.938867 286.135479 77.814659 C 286.135479 78.262004 286.135479 78.750017 286.135479 79.284508 C 286.135479 79.818998 286.135479 80.417395 286.135479 81.079699 C 286.745496 80.638163 287.140554 80.161769 287.326464 79.644708 C 287.512373 79.110217 287.721522 78.610585 287.959719 78.15162 C 289.086797 75.80451 290.266162 73.521305 291.503623 71.290388 C 292.758514 69.053662 294.176076 66.927319 295.762119 64.893931 C 297.057677 63.307888 298.475239 61.954233 300.026424 60.827155 C 301.577608 59.682648 303.36118 58.880912 305.394568 58.421948 C 309.931928 57.370396 313.371258 58.880912 315.712559 62.959308 C 316.467817 64.324582 317.013927 65.765383 317.345079 67.2759 C 317.69366 68.786416 317.943476 70.302743 318.094528 71.81326 C 318.23977 73.99189 318.297867 76.176329 318.257199 78.372388 C 318.222341 80.568447 318.094528 82.758696 317.87376 84.954755 C 317.484511 89.03315 317.217266 93.128975 317.066214 97.242228 C 316.920972 101.355481 317.298602 105.457115 318.204912 109.552939 C 318.204912 109.773707 318.222341 109.977046 318.257199 110.162956 C 318.297867 110.348866 318.350154 110.558014 318.425679 110.796211 C 318.663876 111.464324 318.878835 112.173105 319.058935 112.928363 C 319.244844 113.683622 319.790954 114.148396 320.691455 114.311067 C 321.522239 114.462119 322.22521 114.247161 322.794559 113.677812 C 323.369717 113.102654 323.875159 112.521686 324.316695 111.934908 C 325.071953 111.011169 325.757495 110.006094 326.367512 108.919684 C 326.971718 107.827465 327.581735 106.746864 328.191751 105.677883 C 329.923036 102.360556 331.468411 98.967703 332.810447 95.499324 C 334.175721 92.013516 335.47128 88.49866 336.685503 84.954755 C 336.830745 84.344739 337.034084 83.804439 337.295519 83.322235 C 337.568574 82.828412 338.19602 82.68898 339.177856 82.909748 Z M 339.177856 82.909748 " stroke="#f6f5f2" stroke-width="9.916813" stroke-opacity="1" stroke-miterlimit="4"/><g fill="#ffbd59" fill-opacity="1"><g transform="translate(84.949016, 190.217618)"><g><path d="M 22.703125 -46.78125 C 22.859375 -44.34375 23 -41.957031 23.125 -39.625 C 23.25 -37.289062 23.363281 -35.128906 23.46875 -33.140625 C 23.46875 -28.617188 23.289062 -24.328125 22.9375 -20.265625 C 22.582031 -16.203125 21.769531 -12.238281 20.5 -8.375 C 20.34375 -7.875 20.289062 -7.46875 20.34375 -7.15625 C 20.394531 -6.851562 20.703125 -6.578125 21.265625 -6.328125 C 23.035156 -5.660156 24.8125 -5.007812 26.59375 -4.375 C 28.375 -3.738281 30.226562 -3.269531 32.15625 -2.96875 C 35.15625 -2.457031 38.128906 -2.632812 41.078125 -3.5 C 41.378906 -3.601562 41.691406 -3.691406 42.015625 -3.765625 C 42.347656 -3.847656 42.671875 -3.9375 42.984375 -4.03125 C 43.847656 -4.289062 44.378906 -4.015625 44.578125 -3.203125 C 44.828125 -2.441406 44.546875 -1.882812 43.734375 -1.53125 C 42.367188 -1.019531 40.984375 -0.632812 39.578125 -0.375 C 38.179688 -0.125 36.75 0.0234375 35.28125 0.078125 C 31.820312 0.179688 28.367188 -0.300781 24.921875 -1.375 C 24.109375 -1.625 23.316406 -1.890625 22.546875 -2.171875 C 21.785156 -2.453125 21 -2.71875 20.1875 -2.96875 C 19.425781 -3.269531 18.941406 -3.382812 18.734375 -3.3125 C 18.535156 -3.238281 18.234375 -2.867188 17.828125 -2.203125 C 17.421875 -1.492188 16.988281 -0.820312 16.53125 -0.1875 C 16.070312 0.445312 15.59375 1.066406 15.09375 1.671875 C 13.3125 3.703125 11.289062 5.097656 9.03125 5.859375 C 6.769531 6.628906 4.316406 6.835938 1.671875 6.484375 C -0.304688 6.222656 -1.800781 5.304688 -2.8125 3.734375 C -3.832031 2.160156 -4.085938 0.332031 -3.578125 -1.75 C -3.222656 -3.226562 -2.613281 -4.488281 -1.75 -5.53125 C -0.882812 -6.570312 0.179688 -7.445312 1.453125 -8.15625 C 3.785156 -9.476562 6.347656 -10.085938 9.140625 -9.984375 C 10.109375 -9.929688 10.679688 -9.992188 10.859375 -10.171875 C 11.035156 -10.347656 11.226562 -10.921875 11.4375 -11.890625 C 11.789062 -13.765625 12.066406 -15.640625 12.265625 -17.515625 C 12.472656 -19.398438 12.601562 -21.304688 12.65625 -23.234375 C 12.800781 -27.859375 12.945312 -32.484375 13.09375 -37.109375 C 13.25 -41.734375 13.378906 -46.359375 13.484375 -50.984375 C 13.484375 -51.234375 13.492188 -51.457031 13.515625 -51.65625 C 13.546875 -51.863281 13.5625 -52.070312 13.5625 -52.28125 C 13.507812 -53.34375 13.992188 -53.898438 15.015625 -53.953125 C 15.878906 -54.003906 16.71875 -54.066406 17.53125 -54.140625 C 18.34375 -54.210938 19.15625 -54.328125 19.96875 -54.484375 C 20.570312 -54.535156 21.015625 -54.429688 21.296875 -54.171875 C 21.578125 -53.921875 21.769531 -53.539062 21.875 -53.03125 C 22.332031 -50.945312 22.609375 -48.863281 22.703125 -46.78125 Z M 8.921875 -7.15625 C 7.742188 -7.363281 6.632812 -7.222656 5.59375 -6.734375 C 4.550781 -6.253906 3.703125 -5.519531 3.046875 -4.53125 C 2.390625 -3.539062 2.085938 -2.4375 2.140625 -1.21875 C 2.140625 0.207031 2.546875 1.375 3.359375 2.28125 C 3.960938 3 4.597656 3.101562 5.265625 2.59375 C 5.410156 2.4375 5.554688 2.28125 5.703125 2.125 C 5.859375 1.976562 6.015625 1.828125 6.171875 1.671875 C 7.035156 0.554688 7.757812 -0.617188 8.34375 -1.859375 C 8.925781 -3.109375 9.445312 -4.394531 9.90625 -5.71875 C 10.0625 -6.226562 10.035156 -6.570312 9.828125 -6.75 C 9.628906 -6.925781 9.328125 -7.0625 8.921875 -7.15625 Z M 8.921875 -7.15625 "/></g></g></g><g fill="#ffbd59" fill-opacity="1"><g transform="translate(128.001115, 190.217618)"><g><path d="M 22.40625 -22.328125 C 23.007812 -22.078125 23.296875 -21.757812 23.265625 -21.375 C 23.242188 -20.988281 23.132812 -20.59375 22.9375 -20.1875 C 22.019531 -18.0625 21.09375 -15.90625 20.15625 -13.71875 C 19.21875 -11.53125 18.265625 -9.34375 17.296875 -7.15625 C 16.992188 -6.5 16.6875 -5.851562 16.375 -5.21875 C 16.070312 -4.582031 15.742188 -3.9375 15.390625 -3.28125 C 14.523438 -1.800781 13.316406 -0.78125 11.765625 -0.21875 C 10.222656 0.332031 8.640625 0.429688 7.015625 0.078125 C 5.390625 -0.273438 4.066406 -1.140625 3.046875 -2.515625 C 2.390625 -3.378906 1.867188 -4.289062 1.484375 -5.25 C 1.109375 -6.21875 0.789062 -7.210938 0.53125 -8.234375 C 0.125 -9.804688 -0.140625 -11.40625 -0.265625 -13.03125 C -0.390625 -14.65625 -0.425781 -16.179688 -0.375 -17.609375 C -0.425781 -20.753906 -0.238281 -23.773438 0.1875 -26.671875 C 0.625 -29.566406 1.222656 -32.4375 1.984375 -35.28125 C 2.035156 -35.582031 2.125 -35.882812 2.25 -36.1875 C 2.375 -36.5 2.488281 -36.804688 2.59375 -37.109375 C 2.84375 -37.816406 3.320312 -38.144531 4.03125 -38.09375 C 4.1875 -38.09375 4.316406 -38.09375 4.421875 -38.09375 C 4.523438 -38.09375 4.625 -38.09375 4.71875 -38.09375 C 6.25 -38.050781 7.148438 -37.890625 7.421875 -37.609375 C 7.703125 -37.328125 7.769531 -36.453125 7.625 -34.984375 C 7.414062 -31.929688 7.207031 -28.90625 7 -25.90625 C 6.800781 -22.90625 6.753906 -19.910156 6.859375 -16.921875 C 6.910156 -15.242188 6.960938 -13.578125 7.015625 -11.921875 C 7.066406 -10.273438 7.242188 -8.640625 7.546875 -7.015625 C 7.648438 -6.347656 7.800781 -5.707031 8 -5.09375 C 8.207031 -4.488281 8.460938 -3.910156 8.765625 -3.359375 C 9.421875 -2.179688 10.109375 -2.128906 10.828125 -3.203125 C 11.128906 -3.609375 11.394531 -4.039062 11.625 -4.5 C 11.851562 -4.957031 12.09375 -5.414062 12.34375 -5.875 C 13.613281 -8.3125 14.867188 -10.757812 16.109375 -13.21875 C 17.359375 -15.6875 18.617188 -18.140625 19.890625 -20.578125 C 19.941406 -20.722656 20.003906 -20.859375 20.078125 -20.984375 C 20.148438 -21.117188 20.210938 -21.257812 20.265625 -21.40625 C 20.617188 -22.070312 20.910156 -22.441406 21.140625 -22.515625 C 21.367188 -22.585938 21.789062 -22.523438 22.40625 -22.328125 Z M 6.40625 -42.140625 C 4.269531 -42.085938 3.175781 -42.925781 3.125 -44.65625 C 3.070312 -45.625 3.347656 -46.445312 3.953125 -47.125 C 4.566406 -47.8125 5.304688 -48.15625 6.171875 -48.15625 C 7.234375 -48.15625 8.082031 -47.898438 8.71875 -47.390625 C 9.351562 -46.890625 9.671875 -46.179688 9.671875 -45.265625 C 9.671875 -43.234375 8.582031 -42.191406 6.40625 -42.140625 Z M 6.40625 -42.140625 "/></g></g></g><g fill="#ffbd59" fill-opacity="1"><g transform="translate(148.346092, 190.217618)"><g><path d="M 7.546875 -33.296875 C 7.441406 -33.453125 7.335938 -33.617188 7.234375 -33.796875 C 7.140625 -33.972656 6.988281 -34.1875 6.78125 -34.4375 C 6.425781 -33.019531 6.132812 -31.648438 5.90625 -30.328125 C 5.675781 -29.003906 5.4375 -27.707031 5.1875 -26.4375 C 4.320312 -21.820312 3.203125 -17.289062 1.828125 -12.84375 C 0.453125 -8.394531 -1.117188 -4.007812 -2.890625 0.3125 C -3.242188 1.269531 -3.597656 1.835938 -3.953125 2.015625 C -4.316406 2.191406 -4.929688 2.207031 -5.796875 2.0625 C -6.660156 1.90625 -6.960938 1.421875 -6.703125 0.609375 C -6.453125 -0.046875 -6.222656 -0.71875 -6.015625 -1.40625 C -5.816406 -2.09375 -5.585938 -2.789062 -5.328125 -3.5 C -3.503906 -8.832031 -1.984375 -14.242188 -0.765625 -19.734375 C 0.453125 -25.222656 1.644531 -30.734375 2.8125 -36.265625 C 3.019531 -37.179688 3.222656 -38.097656 3.421875 -39.015625 C 3.628906 -39.929688 3.832031 -40.820312 4.03125 -41.6875 C 4.695312 -44.375 6.125 -44.90625 8.3125 -43.28125 C 9.832031 -42.113281 11.050781 -40.796875 11.96875 -39.328125 C 13.789062 -36.378906 15.503906 -33.351562 17.109375 -30.25 C 18.710938 -27.15625 20.046875 -23.929688 21.109375 -20.578125 C 21.410156 -19.710938 21.660156 -19.226562 21.859375 -19.125 C 22.066406 -19.019531 22.628906 -19.148438 23.546875 -19.515625 C 24.710938 -20.015625 25.851562 -20.546875 26.96875 -21.109375 C 28.09375 -21.671875 29.160156 -22.304688 30.171875 -23.015625 C 30.429688 -23.210938 30.695312 -23.398438 30.96875 -23.578125 C 31.25 -23.765625 31.546875 -23.90625 31.859375 -24 C 32.765625 -24.207031 33.375 -23.953125 33.6875 -23.234375 C 33.832031 -22.929688 33.816406 -22.664062 33.640625 -22.4375 C 33.460938 -22.207031 33.273438 -21.992188 33.078125 -21.796875 C 32.210938 -21.179688 31.320312 -20.566406 30.40625 -19.953125 C 29.488281 -19.347656 28.546875 -18.816406 27.578125 -18.359375 C 27.078125 -18.109375 26.554688 -17.867188 26.015625 -17.640625 C 25.484375 -17.410156 24.96875 -17.195312 24.46875 -17 C 23.445312 -16.632812 22.875 -16.335938 22.75 -16.109375 C 22.625 -15.890625 22.660156 -15.296875 22.859375 -14.328125 C 23.015625 -13.765625 23.128906 -13.191406 23.203125 -12.609375 C 23.273438 -12.023438 23.363281 -11.453125 23.46875 -10.890625 C 23.675781 -9.773438 23.726562 -8.671875 23.625 -7.578125 C 23.519531 -6.484375 23.34375 -5.378906 23.09375 -4.265625 C 22.476562 -1.984375 21.15625 -0.179688 19.125 1.140625 C 17.34375 2.359375 15.472656 3.066406 13.515625 3.265625 C 11.566406 3.472656 9.601562 3.222656 7.625 2.515625 C 5.84375 1.898438 4.484375 0.9375 3.546875 -0.375 C 2.609375 -1.695312 2.140625 -3.171875 2.140625 -4.796875 C 2.140625 -6.421875 2.671875 -8 3.734375 -9.53125 C 4.703125 -10.894531 5.832031 -12.007812 7.125 -12.875 C 8.414062 -13.738281 9.800781 -14.503906 11.28125 -15.171875 C 12.144531 -15.578125 12.738281 -15.90625 13.0625 -16.15625 C 13.394531 -16.40625 13.535156 -16.734375 13.484375 -17.140625 C 13.429688 -17.546875 13.28125 -18.179688 13.03125 -19.046875 C 12.269531 -21.484375 11.40625 -23.882812 10.4375 -26.25 C 9.46875 -28.613281 8.503906 -30.960938 7.546875 -33.296875 Z M 15.09375 -2.0625 C 15.34375 -2.769531 15.519531 -3.488281 15.625 -4.21875 C 15.726562 -4.957031 15.78125 -5.632812 15.78125 -6.25 C 15.78125 -7.414062 15.6875 -8.492188 15.5 -9.484375 C 15.320312 -10.472656 15.109375 -11.453125 14.859375 -12.421875 C 14.703125 -13.234375 14.296875 -13.460938 13.640625 -13.109375 C 12.316406 -12.441406 11.117188 -11.648438 10.046875 -10.734375 C 8.984375 -9.828125 8.175781 -8.660156 7.625 -7.234375 C 7.164062 -5.921875 7.097656 -4.664062 7.421875 -3.46875 C 7.753906 -2.269531 8.457031 -1.265625 9.53125 -0.453125 C 10.644531 0.359375 11.722656 0.609375 12.765625 0.296875 C 13.804688 -0.00390625 14.582031 -0.789062 15.09375 -2.0625 Z M 15.09375 -2.0625 "/></g></g></g><g fill="#ffbd59" fill-opacity="1"><g transform="translate(178.368266, 190.217618)"><g><path d="M 43.125 -19.046875 C 43.175781 -18.535156 43.070312 -18.203125 42.8125 -18.046875 C 42.5625 -17.898438 42.257812 -17.773438 41.90625 -17.671875 C 40.539062 -17.421875 39.195312 -17.164062 37.875 -16.90625 C 36.550781 -16.65625 35.203125 -16.378906 33.828125 -16.078125 C 33.523438 -16.023438 33.320312 -16 33.21875 -16 C 32 -15.894531 31.019531 -15.535156 30.28125 -14.921875 C 29.550781 -14.316406 28.878906 -13.457031 28.265625 -12.34375 C 24.960938 -5.632812 19.53125 -1.75 11.96875 -0.6875 C 10.894531 -0.53125 10.296875 -0.375 10.171875 -0.21875 C 10.046875 -0.0703125 9.957031 0.484375 9.90625 1.453125 C 9.851562 2.109375 9.789062 2.753906 9.71875 3.390625 C 9.644531 4.023438 9.609375 4.671875 9.609375 5.328125 C 9.554688 6.296875 9.070312 6.78125 8.15625 6.78125 C 7.289062 6.832031 6.425781 6.867188 5.5625 6.890625 C 4.695312 6.921875 3.832031 6.960938 2.96875 7.015625 C 1.957031 7.109375 1.347656 6.570312 1.140625 5.40625 C 0.785156 3.125 0.46875 0.828125 0.1875 -1.484375 C -0.09375 -3.796875 -0.257812 -6.117188 -0.3125 -8.453125 C -0.5625 -15.410156 -0.410156 -22.332031 0.140625 -29.21875 C 0.703125 -36.101562 1.796875 -42.953125 3.421875 -49.765625 C 3.628906 -50.722656 3.875 -51.660156 4.15625 -52.578125 C 4.4375 -53.492188 4.726562 -54.410156 5.03125 -55.328125 C 5.382812 -56.492188 6.09375 -57.078125 7.15625 -57.078125 C 7.769531 -57.023438 8.378906 -57.007812 8.984375 -57.03125 C 9.597656 -57.0625 10.210938 -57.050781 10.828125 -57 C 11.640625 -56.894531 12.132812 -56.738281 12.3125 -56.53125 C 12.488281 -56.332031 12.601562 -55.800781 12.65625 -54.9375 C 12.65625 -54.53125 12.640625 -54.132812 12.609375 -53.75 C 12.585938 -53.375 12.550781 -52.984375 12.5 -52.578125 C 12.195312 -48.515625 11.90625 -44.460938 11.625 -40.421875 C 11.34375 -36.390625 11.125 -32.335938 10.96875 -28.265625 C 10.96875 -27.910156 10.96875 -27.554688 10.96875 -27.203125 C 10.96875 -26.847656 10.96875 -26.492188 10.96875 -26.140625 C 11.425781 -26.242188 11.742188 -26.429688 11.921875 -26.703125 C 12.097656 -26.984375 12.289062 -27.226562 12.5 -27.4375 C 13.257812 -28.300781 14.03125 -29.097656 14.8125 -29.828125 C 15.601562 -30.566406 16.484375 -31.242188 17.453125 -31.859375 C 18.210938 -32.304688 18.984375 -32.679688 19.765625 -32.984375 C 20.554688 -33.296875 21.410156 -33.476562 22.328125 -33.53125 C 25.734375 -33.6875 28.117188 -32.210938 29.484375 -29.109375 C 30.097656 -27.785156 30.476562 -26.410156 30.625 -24.984375 C 30.78125 -23.566406 30.804688 -22.125 30.703125 -20.65625 C 30.660156 -19.4375 30.738281 -18.785156 30.9375 -18.703125 C 31.144531 -18.628906 31.804688 -18.671875 32.921875 -18.828125 C 34.335938 -19.023438 35.757812 -19.238281 37.1875 -19.46875 C 38.613281 -19.695312 40.035156 -19.914062 41.453125 -20.125 C 41.859375 -20.164062 42.226562 -20.132812 42.5625 -20.03125 C 42.894531 -19.9375 43.082031 -19.609375 43.125 -19.046875 Z M 19.96875 -9.671875 C 20.269531 -10.078125 20.570312 -10.507812 20.875 -10.96875 C 21.1875 -11.425781 21.390625 -12.007812 21.484375 -12.71875 C 19.453125 -12.164062 17.519531 -11.507812 15.6875 -10.75 C 13.863281 -9.988281 12.21875 -8.867188 10.75 -7.390625 C 10.4375 -7.085938 10.253906 -6.742188 10.203125 -6.359375 C 10.160156 -5.984375 10.140625 -5.59375 10.140625 -5.1875 C 10.085938 -4.320312 10.175781 -3.800781 10.40625 -3.625 C 10.632812 -3.445312 11.15625 -3.484375 11.96875 -3.734375 C 13.644531 -4.242188 15.128906 -5.003906 16.421875 -6.015625 C 17.710938 -7.035156 18.894531 -8.253906 19.96875 -9.671875 Z M 23.546875 -17.53125 C 24.054688 -19.101562 24.398438 -20.703125 24.578125 -22.328125 C 24.753906 -23.953125 24.613281 -25.578125 24.15625 -27.203125 C 23.644531 -29.085938 22.96875 -30.140625 22.125 -30.359375 C 21.289062 -30.585938 20.210938 -29.992188 18.890625 -28.578125 C 17.117188 -26.742188 15.570312 -24.734375 14.25 -22.546875 C 12.925781 -20.367188 11.785156 -18.085938 10.828125 -15.703125 C 10.421875 -14.679688 10.367188 -13.507812 10.671875 -12.1875 C 12.597656 -13.207031 14.550781 -14.046875 16.53125 -14.703125 C 18.519531 -15.367188 20.503906 -15.976562 22.484375 -16.53125 C 23.085938 -16.738281 23.441406 -17.070312 23.546875 -17.53125 Z M 23.546875 -17.53125 "/></g></g></g><g fill="#ffbd59" fill-opacity="1"><g transform="translate(217.76284, 190.217618)"><g><path d="M 18.75 -21.71875 C 18.75 -21.71875 18.617188 -21.664062 18.359375 -21.5625 C 18.359375 -21.414062 18.359375 -21.265625 18.359375 -21.109375 C 18.359375 -20.953125 18.382812 -20.800781 18.4375 -20.65625 C 19.101562 -18.164062 19.296875 -15.710938 19.015625 -13.296875 C 18.734375 -10.878906 18.109375 -8.503906 17.140625 -6.171875 C 16.078125 -3.578125 14.539062 -1.769531 12.53125 -0.75 C 10.53125 0.257812 8.179688 0.457031 5.484375 -0.15625 C 4.066406 -0.507812 2.875 -1.101562 1.90625 -1.9375 C 0.9375 -2.78125 0.148438 -3.8125 -0.453125 -5.03125 C -1.171875 -6.40625 -1.640625 -7.816406 -1.859375 -9.265625 C -2.085938 -10.710938 -2.15625 -12.171875 -2.0625 -13.640625 C -1.800781 -16.328125 -1.273438 -18.925781 -0.484375 -21.4375 C 0.296875 -23.957031 1.421875 -26.335938 2.890625 -28.578125 C 3.347656 -29.285156 3.84375 -29.957031 4.375 -30.59375 C 4.914062 -31.226562 5.515625 -31.800781 6.171875 -32.3125 C 7.335938 -33.175781 8.390625 -33.609375 9.328125 -33.609375 C 10.273438 -33.609375 11.304688 -33.203125 12.421875 -32.390625 C 12.878906 -32.035156 13.320312 -31.664062 13.75 -31.28125 C 14.1875 -30.894531 14.609375 -30.5 15.015625 -30.09375 C 15.316406 -29.789062 15.617188 -29.488281 15.921875 -29.1875 C 16.234375 -28.882812 16.539062 -28.578125 16.84375 -28.265625 C 18.664062 -26.390625 20.671875 -25.054688 22.859375 -24.265625 C 25.046875 -23.484375 27.457031 -23.445312 30.09375 -24.15625 C 30.5 -24.257812 30.914062 -24.347656 31.34375 -24.421875 C 31.78125 -24.492188 32.203125 -24.554688 32.609375 -24.609375 C 32.960938 -24.710938 33.28125 -24.710938 33.5625 -24.609375 C 33.84375 -24.515625 34.035156 -24.265625 34.140625 -23.859375 C 34.335938 -23.035156 34.003906 -22.5 33.140625 -22.25 C 31.015625 -21.738281 28.867188 -21.34375 26.703125 -21.0625 C 24.546875 -20.789062 22.375 -20.90625 20.1875 -21.40625 C 19.9375 -21.507812 19.695312 -21.570312 19.46875 -21.59375 C 19.238281 -21.625 19 -21.664062 18.75 -21.71875 Z M 10.96875 -26.671875 C 10.820312 -26.867188 10.671875 -27.066406 10.515625 -27.265625 C 10.359375 -27.472656 10.128906 -27.628906 9.828125 -27.734375 C 9.421875 -27.273438 9.085938 -26.78125 8.828125 -26.25 C 8.578125 -25.71875 8.351562 -25.171875 8.15625 -24.609375 C 7.695312 -23.140625 7.3125 -21.640625 7 -20.109375 C 6.695312 -18.585938 6.445312 -17.066406 6.25 -15.546875 C 6 -13.921875 5.882812 -12.296875 5.90625 -10.671875 C 5.925781 -9.046875 6.191406 -7.421875 6.703125 -5.796875 C 6.804688 -5.390625 6.929688 -4.984375 7.078125 -4.578125 C 7.234375 -4.171875 7.460938 -3.785156 7.765625 -3.421875 C 8.578125 -2.359375 9.492188 -2.285156 10.515625 -3.203125 C 11.222656 -3.859375 11.832031 -4.722656 12.34375 -5.796875 C 14.070312 -9.398438 14.769531 -12.941406 14.4375 -16.421875 C 14.101562 -19.898438 12.945312 -23.316406 10.96875 -26.671875 Z M 10.96875 -26.671875 "/></g></g></g><g fill="#ffbd59" fill-opacity="1"><g transform="translate(248.166003, 190.217618)"><g><path d="M 42.828125 -22.25 C 43.535156 -22.09375 43.988281 -21.898438 44.1875 -21.671875 C 44.394531 -21.453125 44.398438 -20.984375 44.203125 -20.265625 C 43.390625 -17.171875 42.421875 -14.148438 41.296875 -11.203125 C 40.179688 -8.253906 38.757812 -5.457031 37.03125 -2.8125 C 36.320312 -1.75 35.585938 -0.863281 34.828125 -0.15625 C 33.753906 0.8125 32.378906 1.421875 30.703125 1.671875 C 29.023438 1.929688 27.554688 1.753906 26.296875 1.140625 C 25.578125 0.835938 25.015625 0.410156 24.609375 -0.140625 C 24.203125 -0.703125 23.847656 -1.34375 23.546875 -2.0625 C 23.085938 -3.226562 22.753906 -4.429688 22.546875 -5.671875 C 22.347656 -6.921875 22.222656 -8.179688 22.171875 -9.453125 C 22.023438 -12.035156 22.039062 -14.609375 22.21875 -17.171875 C 22.394531 -19.742188 22.53125 -22.328125 22.625 -24.921875 C 22.78125 -27.710938 22.578125 -30.503906 22.015625 -33.296875 C 21.921875 -33.703125 21.804688 -34.144531 21.671875 -34.625 C 21.546875 -35.113281 21.207031 -35.410156 20.65625 -35.515625 C 20.144531 -35.609375 19.734375 -35.488281 19.421875 -35.15625 C 19.117188 -34.832031 18.816406 -34.492188 18.515625 -34.140625 C 15.617188 -30.535156 13.410156 -26.546875 11.890625 -22.171875 C 10.671875 -18.671875 9.601562 -15.128906 8.6875 -11.546875 C 7.769531 -7.960938 6.984375 -4.367188 6.328125 -0.765625 C 6.117188 0.253906 5.910156 0.835938 5.703125 0.984375 C 5.503906 1.140625 4.925781 1.242188 3.96875 1.296875 C 3.601562 1.296875 3.242188 1.304688 2.890625 1.328125 C 2.535156 1.359375 2.179688 1.375 1.828125 1.375 C 0.660156 1.476562 -0.0625 1.414062 -0.34375 1.1875 C -0.625 0.957031 -0.835938 0.304688 -0.984375 -0.765625 C -1.191406 -2.085938 -1.394531 -3.40625 -1.59375 -4.71875 C -1.800781 -6.039062 -1.929688 -7.363281 -1.984375 -8.6875 C -2.179688 -13.507812 -2.15625 -18.320312 -1.90625 -23.125 C -1.65625 -27.925781 -1.125 -32.710938 -0.3125 -37.484375 C -0.3125 -37.691406 -0.269531 -37.894531 -0.1875 -38.09375 C -0.113281 -38.300781 -0.078125 -38.507812 -0.078125 -38.71875 C 0.0234375 -39.726562 0.609375 -40.207031 1.671875 -40.15625 C 2.890625 -40.15625 4.1875 -40.179688 5.5625 -40.234375 C 6.476562 -40.285156 6.988281 -39.828125 7.09375 -38.859375 C 7.132812 -38.203125 7.15625 -37.617188 7.15625 -37.109375 C 7.15625 -35.234375 7.15625 -33.34375 7.15625 -31.4375 C 7.15625 -29.53125 7.15625 -27.613281 7.15625 -25.6875 C 7.15625 -25.375 7.15625 -25.039062 7.15625 -24.6875 C 7.15625 -24.332031 7.15625 -23.925781 7.15625 -23.46875 C 7.5625 -23.769531 7.828125 -24.097656 7.953125 -24.453125 C 8.085938 -24.816406 8.226562 -25.148438 8.375 -25.453125 C 9.144531 -27.023438 9.945312 -28.5625 10.78125 -30.0625 C 11.625 -31.5625 12.578125 -33 13.640625 -34.375 C 14.503906 -35.4375 15.457031 -36.347656 16.5 -37.109375 C 17.539062 -37.867188 18.75 -38.40625 20.125 -38.71875 C 23.164062 -39.425781 25.472656 -38.40625 27.046875 -35.65625 C 27.554688 -34.75 27.925781 -33.785156 28.15625 -32.765625 C 28.382812 -31.753906 28.550781 -30.738281 28.65625 -29.71875 C 28.757812 -28.25 28.796875 -26.773438 28.765625 -25.296875 C 28.742188 -23.828125 28.65625 -22.351562 28.5 -20.875 C 28.25 -18.132812 28.070312 -15.378906 27.96875 -12.609375 C 27.863281 -9.835938 28.117188 -7.082031 28.734375 -4.34375 C 28.734375 -4.1875 28.742188 -4.046875 28.765625 -3.921875 C 28.796875 -3.796875 28.832031 -3.65625 28.875 -3.5 C 29.03125 -3.039062 29.171875 -2.554688 29.296875 -2.046875 C 29.421875 -1.546875 29.789062 -1.242188 30.40625 -1.140625 C 30.96875 -1.035156 31.4375 -1.175781 31.8125 -1.5625 C 32.195312 -1.945312 32.539062 -2.34375 32.84375 -2.75 C 33.351562 -3.351562 33.8125 -4.023438 34.21875 -4.765625 C 34.625 -5.503906 35.03125 -6.226562 35.4375 -6.9375 C 36.601562 -9.164062 37.644531 -11.445312 38.5625 -13.78125 C 39.476562 -16.125 40.34375 -18.488281 41.15625 -20.875 C 41.25 -21.28125 41.382812 -21.648438 41.5625 -21.984375 C 41.738281 -22.316406 42.160156 -22.40625 42.828125 -22.25 Z M 42.828125 -22.25 "/></g></g></g></svg>